<svg xmlns="http://www.w3.org/2000/svg" width="1920" height="4304" viewBox="0 0 1920 4304">
  <g fill="none" transform="translate(-272)">
    <path fill="#F7C452" d="M2202 350C2105.35017 350 2027 271.649831 2027 175 2027 78.3501688 2105.35017 0 2202 0 2298.64983 0 2377 78.3501688 2377 175 2377 271.649831 2298.64983 350 2202 350zM2202 317C2280.42443 317 2344 253.424434 2344 175 2344 96.5755655 2280.42443 33 2202 33 2123.57557 33 2060 96.5755655 2060 175 2060 253.424434 2123.57557 317 2202 317zM175 1681C78.3501688 1681 0 1602.64983 0 1506 0 1409.35017 78.3501688 1331 175 1331 271.649831 1331 350 1409.35017 350 1506 350 1602.64983 271.649831 1681 175 1681zM175 1648C253.424434 1648 317 1584.42443 317 1506 317 1427.57557 253.424434 1364 175 1364 96.5755655 1364 33 1427.57557 33 1506 33 1584.42443 96.5755655 1648 175 1648z"/>
    <path fill="#55C2E4" d="M277.5,4304 C249.057335,4304 226,4280.94266 226,4252.5 C226,4224.05734 249.057335,4201 277.5,4201 C305.942665,4201 329,4224.05734 329,4252.5 C329,4280.94266 305.942665,4304 277.5,4304 Z M277.5,4294 C300.419817,4294 319,4275.41982 319,4252.5 C319,4229.58018 300.419817,4211 277.5,4211 C254.580183,4211 236,4229.58018 236,4252.5 C236,4275.41982 254.580183,4294 277.5,4294 Z" transform="matrix(-1 0 0 1 555 0)"/>
    <path fill="#F7C452" d="M2201.5,3017 C2154.27965,3017 2116,2978.72035 2116,2931.5 C2116,2884.27965 2154.27965,2846 2201.5,2846 C2248.72035,2846 2287,2884.27965 2287,2931.5 C2287,2978.72035 2248.72035,3017 2201.5,3017 Z M2201,3001 C2239.65993,3001 2271,2969.65993 2271,2931 C2271,2892.34007 2239.65993,2861 2201,2861 C2162.34007,2861 2131,2892.34007 2131,2931 C2131,2969.65993 2162.34007,3001 2201,3001 Z"/>
    <path fill="#DB57EA" d="M272.5 3157C213.681674 3157 166 3109.31833 166 3050.5 166 2991.68167 213.681674 2944 272.5 2944 331.318326 2944 379 2991.68167 379 3050.5 379 3109.31833 331.318326 3157 272.5 3157zM272 3137C320.048773 3137 359 3098.04877 359 3050 359 3001.95123 320.048773 2963 272 2963 223.951227 2963 185 3001.95123 185 3050 185 3098.04877 223.951227 3137 272 3137zM271.5 666C236.429918 666 208 637.570082 208 602.5 208 567.429918 236.429918 539 271.5 539 306.570082 539 335 567.429918 335 602.5 335 637.570082 306.570082 666 271.5 666zM271 654C299.718807 654 323 630.718807 323 602 323 573.281193 299.718807 550 271 550 242.281193 550 219 573.281193 219 602 219 630.718807 242.281193 654 271 654z"/>
  </g>
</svg>
