<svg xmlns="http://www.w3.org/2000/svg" width="137" height="108" viewBox="0 0 137 108">
  <path fill="#55C2E4" fill-rule="evenodd" d="M152.4,108 L100,108 C94.66664,91.99992 92,75.466752 92,58.4 C92,41.333248 96.733286,27.333388 106.2,16.4 C115.666714,5.466612 129.599908,0 148,0 L148,26 C134.133264,26 127.2,34.799912 127.2,52.4 L127.2,58.8 L152.4,58.8 L152.4,108 Z M76.4,108 L24,108 C18.66664,91.99992 16,75.466752 16,58.4 C16,41.333248 20.733286,27.333388 30.2,16.4 C39.666714,5.466612 53.599908,0 72,0 L72,26 C58.133264,26 51.2,34.799912 51.2,52.4 L51.2,58.8 L76.4,58.8 L76.4,108 Z" transform="translate(-16)"/>
</svg>
